# xmcd CD database file
#
# Track frame offsets:
#	150
#	51262
#	81272
#	127865
#	164520
#	201590
#
# Disc length: 3325 seconds
#
# Revision: 1
# Processed by: cddbd v1.5.1PL2 Copyright (c) Steve Scherf et al.
# Submitted via: CDex 1.51
#
DISCID=510cfb06
DTITLE=Joe Rosenberg's Affinity - A Tribute to Eric Dolphy with Buddy Colette
DYEAR=1996
DGENRE=Jazz
TTITLE0=Bee Vamp
TTITLE1=Bookers Waltz
TTITLE2=Ode to Charlie Parker
TTITLE3=Fire Waltz
TTITLE4=Mendacity
TTITLE5=So Long Eric
EXTD=YEAR: 1996
EXTT0=
EXTT1=
EXTT2=
EXTT3=
EXTT4=
EXTT5=
PLAYORDER=
